#!OML:ASF I:\Actors\actors\Patient Classification 1\Patient 1\Session 1\Subject1.ASF
:FULLY-SPECIFIED
:DEGREES
895
root 0.546573 17.5274 9.21876 3.83632 9.27382 -6.53066
lowerback 3.07338 -7.13321 1.65903
upperback -4.55571 -9.31529 2.64365
thorax -6.27648 -4.61993 2.61442
lowerneck -14.9678 -6.75146 -3.22557
upperneck 39.7948 -10.7625 2.23334
head 17.4572 -4.68793 -0.494983
rclavicle -7.13761e-014 4.7112e-014
rhumerus -79.4988 24.5529 -81.973
rradius 117.139
rwrist -16.7406
rhand 49.5603 -60.2622
rfingers 7.12502
rthumb 69.6612 -57.0487
lclavicle -7.13761e-014 4.7112e-014
lhumerus -89.1734 -80.0775 161.464
lradius 89.6902
lwrist 45.8407
lhand -7.15782 -6.96817
lfingers 7.12502
lthumb 18.719 22.1512
rfemur -3.60069 17.1758 25.4038
rtibia 13.3437
rfoot -17.266 -26.7892
rtoes 3.76745
lfemur 4.59404 -35.0498 -12.4313
ltibia -3.1403
lfoot -9.94084 33.1423
ltoes -12.8005
896
root 0.536118 17.524 9.19414 3.67463 9.48512 -6.09486
lowerback 3.6256 -7.13336 1.00737
upperback -4.55076 -9.35031 2.54946
thorax -6.49528 -4.60387 2.94298
lowerneck -15.014 -6.80833 -3.244
upperneck 39.9365 -10.8433 2.19898
head 17.5511 -4.72236 -0.528557
rclavicle -8.16757e-014 1.05356e-014
rhumerus -79.5351 24.4698 -81.8866
rradius 117.677
rwrist -18.4575
rhand 50.2081 -61.287
rfingers 7.12502
rthumb 70.0873 -56.7417
lclavicle -8.16757e-014 1.05356e-014
lhumerus -89.4959 -80.7757 162.169
lradius 89.7967
lwrist 44.582
lhand -8.90278 -8.56339
lfingers 7.12502
lthumb 17.04 20.7093
rfemur -3.70817 17.2108 24.9251
rtibia 13.8023
rfoot -17.5287 -27.029
rtoes 4.05599
lfemur 4.61271 -35.1972 -12.9235
ltibia -3.04942
lfoot -9.81093 33.0229
ltoes -13.1526
897
root 0.535153 17.5249 9.21115 3.69219 10.5929 -6.46387
lowerback 3.15633 -7.42876 1.46051
upperback -4.5144 -9.72214 2.64383
thorax -6.23754 -4.81248 2.75966
lowerneck -14.953 -6.78955 -2.99791
upperneck 39.9147 -10.7922 1.96821
head 17.4772 -4.69913 -0.658209
rclavicle -5.55603e-014 1.59028e-015
rhumerus -79.304 24.3742 -81.8181
rradius 118.104
rwrist -19.8245
rhand 50.3863 -61.6594
rfingers 7.12502
rthumb 70.2024 -56.7375
lclavicle -5.55603e-014 1.59028e-015
lhumerus -88.8685 -81.4303 162.12
lradius 89.7991
lwrist 43.4759
lhand -9.50533 -9.82298
lfingers 7.12502
lthumb 16.46 19.4987
rfemur -3.54638 16.6534 25.4357
rtibia 13.6444
rfoot -17.8129 -27.4462
rtoes 4.4468
lfemur 4.10763 -35.0563 -12.1527
ltibia -3.05277
lfoot -9.31896 31.871
ltoes -14.364
898
root 0.533877 17.5245 9.21282 3.70492 11.0733 -6.50603
lowerback 3.01061 -7.51589 1.5596
upperback -4.50237 -9.83735 2.62796
thorax -6.15874 -4.87601 2.67788
lowerneck -14.9374 -6.75822 -2.77145
upperneck 39.9008 -10.7342 1.78335
head 17.426 -4.66796 -0.764979
rclavicle -4.19311e-014 1.72943e-014
rhumerus -78.7747 24.3187 -81.8231
rradius 118.456
rwrist -20.6774
rhand 47.594 -55.2545
rfingers 7.12502
rthumb 68.3035 -55.7457
lclavicle -4.19311e-014 1.72943e-014
lhumerus -87.7969 -82.1022 161.727
lradius 89.8126
lwrist 42.8241
lhand -9.36503 -10.4725
lfingers 7.12502
lthumb 16.595 18.838
rfemur -3.52057 16.4342 25.5112
rtibia 13.6409
rfoot -18.0442 -27.6147
rtoes 5.09868
lfemur 3.97515 -35.2451 -12.0206
ltibia -3.12102
lfoot -9.12331 31.5815
ltoes -14.5828
899
root 0.535528 17.5215 9.20523 3.51007 11.1476 -6.80503
lowerback 3.19154 -7.50819 1.92325
upperback -4.46582 -9.79731 2.65736
thorax -6.28124 -4.86868 2.5396
lowerneck -15.0868 -6.76738 -3.18105
upperneck 40.1159 -10.7843 2.1438
head 17.6591 -4.687 -0.55894
rclavicle 7.34509e-014 -4.09496e-014
rhumerus -78.0096 24.4268 -81.9254
rradius 118.857
rwrist -21.2567
rhand 45.6905 -52.5346
rfingers 7.12502
rthumb 66.9093 -56.1732
lclavicle 7.34509e-014 -4.09496e-014
lhumerus -86.6363 -82.7031 161.238
lradius 89.9947
lwrist 42.4496
lhand -9.11442 -10.6184
lfingers 7.12502
lthumb 16.8363 18.6717
rfemur -3.37659 16.3781 25.8956
rtibia 13.6529
rfoot -18.0874 -27.6051
rtoes 5.3499
lfemur 4.28376 -35.4645 -11.8414
ltibia -3.33873
lfoot -9.00659 31.7375
ltoes -14.5974
900
root 0.539428 17.5163 9.18687 3.16471 10.8451 -7.34197
lowerback 3.69278 -7.42855 2.46535
upperback -4.43222 -9.62974 2.78161
thorax -6.60528 -4.8003 2.44211
lowerneck -15.6945 -6.93721 -5.00236
upperneck 41.0069 -11.2373 3.78231
head 18.7109 -4.87421 0.358379
rclavicle -2.66744e-014 -5.92378e-014
rhumerus -77.0792 24.8181 -82.2208
rradius 119.088
rwrist -20.9653
rhand 44.4304 -50.2357
rfingers 7.12502
rthumb 65.9499 -55.7473
lclavicle -2.66744e-014 -5.92378e-014
lhumerus -85.0026 -83.2388 160.275
lradius 90.2599
lwrist 41.4977
lhand -9.21683 -11.1036
lfingers 7.12502
lthumb 16.7377 18.1949
rfemur -3.22435 16.4106 26.5478
rtibia 13.7747
rfoot -17.882 -27.3999
rtoes 4.83069
lfemur 4.82934 -35.6378 -11.5457
ltibia -3.52814
lfoot -9.12312 32.1779
ltoes -14.1784
901
root 0.538022 17.5172 9.15329 3.18838 9.9161 -6.89118
lowerback 4.32199 -7.13102 1.87233
upperback -4.53823 -9.25622 2.68849
thorax -7.00156 -4.58232 2.72426
lowerneck -16.0822 -7.04494 -5.79139
upperneck 41.5803 -11.4533 4.36506
head 19.3392 -4.97849 0.699611
rclavicle -3.58682e-014 2.5842e-014
rhumerus -76.1137 25.4723 -82.9097
rradius 118.906
rwrist -19.0927
rhand 42.6493 -45.7428
rfingers 7.12502
rthumb 64.5516 -53.649
lclavicle -3.58682e-014 2.5842e-014
lhumerus -88.7698 -83.7998 164.61
lradius 90.841
lwrist 41.8276
lhand -10.8181 -11.8085
lfingers 7.12502
lthumb 15.1957 17.6135
rfemur -3.57692 16.801 25.9219
rtibia 14.1691
rfoot -17.5499 -27.036
rtoes 4.06697
lfemur 5.24136 -36.1713 -12.3922
ltibia -3.50149
lfoot -9.75696 33.4447
ltoes -12.4036
902
root 0.539796 17.5277 9.1628 3.59656 9.47475 -6.63848
lowerback 3.74343 -7.00458 1.60246
upperback -4.59067 -9.12629 2.64893
thorax -6.69116 -4.51437 2.73369
lowerneck -16.3492 -7.02853 -5.76842
upperneck 41.7999 -11.3985 4.24555
head 19.5354 -4.95751 0.637759
rclavicle -4.72735e-014 3.89618e-014
rhumerus -74.7705 26.3103 -83.514
rradius 119.014
rwrist -18.1682
rhand 40.8981 -46.3084
rfingers 7.12502
rthumb 63.1353 -56.313
lclavicle -4.72735e-014 3.89618e-014
lhumerus -93.563 -84.3301 169.847
lradius 91.4516
lwrist 41.624
lhand -9.75114 -11.8775
lfingers 7.12502
lthumb 16.2233 17.4636
rfemur -3.94074 16.6762 25.4909
rtibia 14.0616
rfoot -17.2089 -26.6062
rtoes 3.33457
lfemur 5.11861 -36.3578 -12.7034
ltibia -3.55956
lfoot -10.0722 34.0275
ltoes -11.4397
903
root 0.546805 17.5302 9.15595 3.88142 9.07541 -6.45161
lowerback 3.51547 -6.927 1.5
upperback -4.65481 -9.03783 2.60242
thorax -6.62216 -4.46932 2.70565
lowerneck -16.4945 -6.92103 -5.5167
upperneck 41.8458 -11.2137 4.0177
head 19.5389 -4.87208 0.519844
rclavicle -1.44864e-014 1.35174e-014
rhumerus -73.3353 27.4087 -84.3188
rradius 119.074
rwrist -17.1586
rhand 38.48 -46.8341
rfingers 7.12502
rthumb 61.1236 -59.3781
lclavicle -1.44864e-014 1.35174e-014
lhumerus -97.0138 -84.602 173.749
lradius 92.0792
lwrist 41.0241
lhand -8.12758 -11.71
lfingers 7.12502
lthumb 17.7861 17.4966
rfemur -4.29019 16.6159 25.0981
rtibia 13.9913
rfoot -16.9543 -26.2178
rtoes 2.91362
lfemur 4.91888 -36.5494 -12.9128
ltibia -3.46465
lfoot -10.3321 34.5288
ltoes -10.646
904
root 0.550416 17.5312 9.14402 3.9466 8.54065 -6.39923
lowerback 3.66299 -6.79696 1.53433
upperback -4.74834 -8.85991 2.53271
thorax -6.82727 -4.38102 2.63021
lowerneck -16.5273 -6.82972 -5.34248
upperneck 41.9352 -11.0936 3.90649
head 19.5667 -4.81164 0.461233
rclavicle -1.68718e-014 -7.95139e-016
rhumerus -72.1228 28.6476 -85.3374
rradius 119.147
rwrist -16.1783
rhand 35.9186 -45.7032
rfingers 7.12502
rthumb 58.9345 -60.5554
lclavicle -1.68718e-014 -7.95139e-016
lhumerus -102.361 -84.6015 179.409
lradius 92.7921
lwrist 40.5447
lhand -7.64431 -11.3203
lfingers 7.12502
lthumb 18.2511 17.8435
rfemur -4.43573 16.7064 24.9383
rtibia 13.9446
rfoot -16.7018 -25.8096
rtoes 2.61489
lfemur 4.96606 -36.4252 -13.0495
ltibia -3.41048
lfoot -10.5492 34.8245
ltoes -9.95857
905
root 0.549604 17.5323 9.12568 3.97357 7.91928 -6.23429
lowerback 3.91221 -6.62135 1.41436
upperback -4.82289 -8.63311 2.40955
thorax -7.05612 -4.26173 2.58753
lowerneck -16.6357 -6.80204 -5.30304
upperneck 42.1064 -11.08 3.89509
head 19.7039 -4.79622 0.445854
rclavicle 2.84014e-014 7.55382e-015
rhumerus -70.9079 29.8739 -86.3775
rradius 119.187
rwrist -15.3117
rhand 34.1055 -45.0371
rfingers 7.12502
rthumb 57.3553 -61.3232
lclavicle 2.84014e-014 7.55382e-015
lhumerus -113.155 -84.651 190.041
lradius 93.6946
lwrist 40.4617
lhand -7.83079 -10.7535
lfingers 7.12502
lthumb 18.0716 18.427
rfemur -4.57305 16.9205 24.6684
rtibia 13.9458
rfoot -16.492 -25.4485
rtoes 2.42302
lfemur 4.90726 -35.8723 -13.1854
ltibia -3.25596
lfoot -10.6342 34.7863
ltoes -9.81127
906
root 0.543995 17.5319 9.09234 3.9502 7.07659 -5.8018
lowerback 4.36556 -6.35514 0.907233
upperback -4.82396 -8.31699 2.22019
thorax -7.27956 -4.07944 2.69148
lowerneck -16.5708 -6.45166 -4.5471
upperneck 41.8709 -10.631 3.60621
head 19.3938 -4.54675 0.283332
rclavicle 3.08365e-014 -3.02153e-014
rhumerus -69.2084 30.9036 -86.9782
rradius 119.437
rwrist -16.1272
rhand 35.0889 -49.7889
rfingers 7.12502
rthumb 58.2146 -65.3162
lclavicle 3.08365e-014 -3.02153e-014
lhumerus -124.586 -84.615 201.139
lradius 94.5995
lwrist 40.0834
lhand -8.51365 -10.3655
lfingers 7.12502
lthumb 17.4146 18.8744
rfemur -4.78618 17.4136 24.0839
rtibia 14.0755
rfoot -16.3038 -25.204
rtoes 1.95743
lfemur 4.9013 -35.4084 -13.6396
ltibia -3.03665
lfoot -10.7314 35.0124
ltoes -9.60913
907
root 0.546173 17.5346 9.1051 4.04657 6.78521 -6.27716
lowerback 3.81144 -6.26749 1.59878
upperback -4.71295 -8.15965 2.22668
thorax -6.94431 -4.04424 2.23283
lowerneck -16.7085 -6.25282 -4.14197
upperneck 41.798 -10.4324 3.57325
head 19.3326 -4.40565 0.237639
rclavicle 1.97791e-014 2.38542e-015
rhumerus -67.9254 32.1226 -88.0944
rradius 119.133
rwrist -14.6026
rhand 36.4354 -50.7699
rfingers 7.12502
rthumb 59.3804 -65.1846
lclavicle 1.97791e-014 2.38542e-015
lhumerus -131.859 -84.402 208.115
lradius 95.3335
lwrist 39.0762
lhand -9.10851 -10.0679
lfingers 7.12502
lthumb 16.842 19.2217
rfemur -4.68917 17.331 24.6285
rtibia 13.6874
rfoot -16.0501 -24.8842
rtoes 0.979258
lfemur 4.87601 -34.8462 -13.0416
ltibia -3.14794
lfoot -10.5562 34.7931
ltoes -9.78882
908
root 0.547006 17.5358 9.09548 4.06612 6.16019 -6.36348
lowerback 3.8733 -6.08599 1.81697
upperback -4.71118 -7.90173 2.17346
thorax -7.02017 -3.92805 2.0444
lowerneck -16.9635 -6.20194 -4.21975
upperneck 41.9066 -10.4292 3.79047
head 19.506 -4.37617 0.345313
rclavicle -2.13445e-014 -2.42517e-014
rhumerus -66.4845 33.3439 -88.7898
rradius 119.037
rwrist -14.3869
rhand 38.0352 -52.7576
rfingers 7.12502
rthumb 60.7474 -65.7286
lclavicle -2.13445e-014 -2.42517e-014
lhumerus -134.421 -84.1857 210.262
lradius 95.9496
lwrist 37.9491
lhand -13.7127 -9.8418
lfingers 7.12502
lthumb 12.4061 19.77
rfemur -4.73616 17.5758 24.6847
rtibia 13.5611
rfoot -15.8485 -24.5444
rtoes 0.58179
lfemur 5.03747 -34.7403 -13.0553
ltibia -3.14666
lfoot -10.9247 35.2046
ltoes -8.77109
909
root 0.546492 17.5353 9.06285 4.06819 5.25 -5.92554
lowerback 4.40816 -5.83271 1.47099
upperback -4.80091 -7.5856 1.97767
thorax -7.4085 -3.75312 2.06808
lowerneck -17.2903 -6.42731 -4.93776
upperneck 42.2622 -10.8069 4.316
head 19.9903 -4.54966 0.62462
rclavicle -5.807e-014 -3.69739e-014
rhumerus -65.0305 34.6179 -89.4756
rradius 118.727
rwrist -13.7415
rhand 39.7289 -54.1207
rfingers 7.12502
rthumb 62.1701 -65.4012
lclavicle -5.807e-014 -3.69739e-014
lhumerus -132.635 -84.0866 207.802
lradius 96.5301
lwrist 37.0511
lhand -11.3502 -8.71413
lfingers 7.12502
lthumb 14.6831 20.7459
rfemur -5.00158 18.0662 24.0652
rtibia 13.6953
rfoot -15.6515 -24.1795
rtoes 0.572206
lfemur 5.21415 -34.9126 -13.7247
ltibia -3.00404
lfoot -11.4864 36.0699
ltoes -7.54972
